<svg xmlns="http://www.w3.org/2000/svg" width="36" height="36" viewBox="0 0 36 36">
  <g id="Group_6" data-name="Group 6" transform="translate(0 0)">
    <path id="Path_17" data-name="Path 17" d="M143.948,75.613v-4h-2v-4h2v-4h-2v2h-2v10h2v12h2v-4h2v-6h-2Z" transform="translate(-117.949 -53.613)"/>
    <rect id="Rectangle_3" data-name="Rectangle 3" width="2" height="2" transform="translate(30 16)"/>
    <path id="Path_18" data-name="Path 18" d="M8,0V2H4V4H2V6H0v8H2v2H4V8H6V6H8V4H28V6h2V8h2v8h2V14h2V6H34V4H32V2H28V0Z"/>
    <rect id="Rectangle_4" data-name="Rectangle 4" width="2" height="2" transform="translate(4 16)"/>
    <path id="Path_19" data-name="Path 19" d="M93.058,50.89v2h-2v4h-2v6h2v6h2v6h-2v4h2v-2h2v-4h2v-4h-2v-4h-2v-10h2v-4Z" transform="translate(-75.058 -42.89)"/>
    <path id="Path_20" data-name="Path 20" d="M54.89,73.613v-2h-2v-4h2v-4h-2v2h-2v10h2v12h2v-4h2v-8h-2Z" transform="translate(-42.891 -53.612)"/>
  </g>
</svg>
